<svg version="1.1" viewBox="0.0 0.0 318.3333333333333 123.73490813648294" fill="none" stroke="none" stroke-linecap="square" stroke-miterlimit="10" xmlns:xlink="http://www.w3.org/1999/xlink" xmlns="http://www.w3.org/2000/svg"><clipPath id="p.0"><path d="m0 0l318.33334 0l0 123.73491l-318.33334 0l0 -123.73491z" clip-rule="nonzero"/></clipPath><g clip-path="url(#p.0)"><path fill="#000000" fill-opacity="0.0" d="m0 0l318.33334 0l0 123.73491l-318.33334 0z" fill-rule="evenodd"/><path fill="#000000" fill-opacity="0.0" d="m-2.8110237 0l321.13388 0l0 123.74803l-321.13388 0z" fill-rule="evenodd"/><path fill="#fdc134" d="m47.909786 90.67401l-11.671875 -21.203125l-3.28125 0l0 21.203125l-13.6875 0l0 -56.15625l22.96875 0q6.640625 0 11.3125 2.328125q4.6875 2.3125 7.0 6.359375q2.328125 4.03125 2.328125 8.984375q0 5.609375 -3.171875 10.015625q-3.15625 4.390625 -9.3125 6.234375l12.96875 22.234375l-15.453125 0zm-14.953125 -30.875l8.484375 0q3.75 0 5.625 -1.84375q1.890625 -1.84375 1.890625 -5.203125q0 -3.203125 -1.890625 -5.03125q-1.875 -1.84375 -5.625 -1.84375l-8.484375 0l0 13.921875zm102.08183 -25.28125l0 56.15625l-13.6875 0l0 -33.6875l-12.5625 33.6875l-11.03125 0l-12.640625 -33.765625l0 33.765625l-13.6875 0l0 -56.15625l16.171875 0l15.75 38.875l15.609375 -38.875l16.078125 0zm30.158676 56.71875q-6.15625 0 -11.046875 -2.0q-4.875 -2.0 -7.796875 -5.921875q-2.921875 -3.921875 -3.078125 -9.4375l14.5625 0q0.3125 3.109375 2.15625 4.75q1.84375 1.640625 4.796875 1.640625q3.046875 0 4.796875 -1.390625q1.765625 -1.40625 1.765625 -3.890625q0 -2.078125 -1.40625 -3.4375q-1.390625 -1.359375 -3.4375 -2.234375q-2.03125 -0.875 -5.796875 -2.0q-5.4375 -1.6875 -8.875 -3.359375q-3.4375 -1.6875 -5.921875 -4.953125q-2.484375 -3.28125 -2.484375 -8.5625q0 -7.84375 5.671875 -12.28125q5.6875 -4.4375 14.8125 -4.4375q9.28125 0 14.953125 4.4375q5.6875 4.4375 6.09375 12.359375l-14.8125 0q-0.15625 -2.71875 -2.0 -4.28125q-1.828125 -1.5625 -4.71875 -1.5625q-2.46875 0 -4.0 1.328125q-1.515625 1.3125 -1.515625 3.796875q0 2.71875 2.5625 4.234375q2.5625 1.515625 8.0 3.28125q5.4375 1.84375 8.828125 3.53125q3.40625 1.671875 5.890625 4.875q2.484375 3.1875 2.484375 8.234375q0 4.796875 -2.453125 8.71875q-2.4375 3.921875 -7.078125 6.25q-4.640625 2.3125 -10.953125 2.3125zm55.434326 0q-7.921875 0 -14.515625 -3.671875q-6.59375 -3.6875 -10.484375 -10.28125q-3.875 -6.609375 -3.875 -14.84375q0 -8.25 3.875 -14.796875q3.890625 -6.5625 10.484375 -10.234375q6.59375 -3.6875 14.515625 -3.6875q7.921875 0 14.515625 3.6875q6.609375 3.671875 10.40625 10.234375q3.796875 6.546875 3.796875 14.796875q0 8.234375 -3.84375 14.84375q-3.828125 6.59375 -10.390625 10.28125q-6.5625 3.671875 -14.484375 3.671875zm0 -12.484375q6.71875 0 10.75 -4.46875q4.046875 -4.484375 4.046875 -11.84375q0 -7.453125 -4.046875 -11.890625q-4.03125 -4.4375 -10.75 -4.4375q-6.796875 0 -10.84375 4.40625q-4.03125 4.390625 -4.03125 11.921875q0 7.4375 4.03125 11.875q4.046875 4.4375 10.84375 4.4375zm56.64554 12.484375q-6.15625 0 -11.046875 -2.0q-4.875 -2.0 -7.796875 -5.921875q-2.9218597 -3.921875 -3.0781097 -9.4375l14.562485 0q0.3125 3.109375 2.15625 4.75q1.84375 1.640625 4.796875 1.640625q3.046875 0 4.796875 -1.390625q1.765625 -1.40625 1.765625 -3.890625q0 -2.078125 -1.40625 -3.4375q-1.390625 -1.359375 -3.4375 -2.234375q-2.03125 -0.875 -5.796875 -2.0q-5.4375 -1.6875 -8.875 -3.359375q-3.4375 -1.6875 -5.921875 -4.953125q-2.4843597 -3.28125 -2.4843597 -8.5625q0 -7.84375 5.6718597 -12.28125q5.6875 -4.4375 14.8125 -4.4375q9.28125 0 14.953125 4.4375q5.6875 4.4375 6.09375 12.359375l-14.8125 0q-0.15625 -2.71875 -2.0 -4.28125q-1.828125 -1.5625 -4.71875 -1.5625q-2.46875 0 -4.0 1.328125q-1.515625 1.3125 -1.515625 3.796875q0 2.71875 2.5625 4.234375q2.5625 1.515625 8.0 3.28125q5.4375 1.84375 8.828125 3.53125q3.40625 1.671875 5.890625 4.875q2.484375 3.1875 2.484375 8.234375q0 4.796875 -2.453125 8.71875q-2.4375 3.921875 -7.078125 6.25q-4.640625 2.3125 -10.953125 2.3125z" fill-rule="nonzero"/></g></svg>