<svg version="1.1" viewBox="0.0 0.0 9600.0 2208.0" fill="none" stroke="none" stroke-linecap="square" stroke-miterlimit="10" xmlns:xlink="http://www.w3.org/1999/xlink" xmlns="http://www.w3.org/2000/svg"><clipPath id="p.0"><path d="m0 0l9600.0 0l0 2208.0l-9600.0 0l0 -2208.0z" clip-rule="nonzero"/></clipPath><g clip-path="url(#p.0)"><path fill="#000000" fill-opacity="0.0" d="m0 0l9600.0 0l0 2208.0l-9600.0 0z" fill-rule="evenodd"/><path fill="#ffd966" d="m264.26685 1757.7649l1791.7832 -1541.1338l13.1171875 15.739227l-1791.7834 1541.1337z" fill-rule="evenodd"/><path fill="#fdc134" d="m201.74754 1909.2225l0 -1665.736l111.1046 85.87482l0 1478.3013l1912.6217 0l131.39795 101.55994z" fill-rule="evenodd"/><path fill="#fdc134" d="m1989.1599 240.2153l0 0c48.536987 13.038803 77.31323 62.95291 64.27344 111.48627l0 0c-6.261963 23.30655 -21.526611 43.171143 -42.435913 55.223846c-20.909302 12.052673 -45.75049 15.306152 -69.058716 9.044708l0 0c-48.536987 -13.038818 -77.31311 -62.95291 -64.273315 -111.48627l0 0c13.039673 -48.533356 62.95752 -77.30737 111.49451 -64.268555z" fill-rule="evenodd"/><path fill="#fdc134" d="m1989.1354 854.7049l0 0c48.536987 13.038818 77.31311 62.95294 64.273315 111.48627l0 0c-6.261963 23.306519 -21.526611 43.171143 -42.435913 55.223877c-20.90918 12.052612 -45.750366 15.306152 -69.058716 9.044678l0 0c-48.536865 -13.038818 -77.31311 -62.95288 -64.273315 -111.48627l0 0c13.039795 -48.533325 62.95764 -77.30737 111.49463 -64.268555z" fill-rule="evenodd"/><path fill="#fdc134" d="m806.8733 1327.243l0 0c48.536987 13.038818 77.31311 62.95288 64.27338 111.48633l0 0c-6.261963 23.306519 -21.52655 43.171143 -42.435852 55.223755c-20.909302 12.052734 -45.75049 15.306152 -69.058716 9.0448l0 0c-48.536987 -13.038818 -77.31317 -62.953003 -64.27338 -111.48633l0 0c13.039795 -48.533325 62.95764 -77.30737 111.49457 -64.268555z" fill-rule="evenodd"/><path fill="#fdc134" d="m479.77124 1383.5829l0 0c48.536987 13.038818 77.31311 62.95288 64.273315 111.486206l0 0c-6.261902 23.306519 -21.52655 43.171143 -42.43582 55.223877c-20.909302 12.052612 -45.750458 15.306152 -69.05875 9.044678l0 0c-48.536957 -13.038818 -77.31311 -62.95288 -64.273315 -111.486206l0 0c13.039764 -48.533447 62.95758 -77.30737 111.49457 -64.268555z" fill-rule="evenodd"/><path fill="#fdc134" d="m1766.1562 547.43787l0 0c48.536865 13.038818 77.31311 62.95288 64.273315 111.48627l0 0c-6.261963 23.306519 -21.526611 43.171143 -42.435913 55.223816c-20.909302 12.052734 -45.750366 15.306213 -69.058716 9.044739l0 0c-48.536987 -13.038818 -77.31311 -62.95294 -64.273315 -111.48627l0 0c13.039795 -48.533386 62.95764 -77.30737 111.49463 -64.268555z" fill-rule="evenodd"/><path fill="#fdc134" d="m1491.1808 817.12915l0 0c48.536987 13.038818 77.31311 62.95288 64.273315 111.48627l0 0c-6.261841 23.306519 -21.52649 43.171143 -42.43579 55.223816c-20.909302 12.052673 -45.75049 15.306152 -69.058716 9.044739l0 0c-48.536987 -13.038818 -77.31311 -62.95294 -64.273315 -111.48627l0 0c13.039795 -48.533386 62.95752 -77.30737 111.49451 -64.268555z" fill-rule="evenodd"/><path fill="#fdc134" d="m1227.0951 1104.2018l0 0c48.536865 13.038818 77.31311 62.95288 64.273315 111.48633l0 0c-6.261963 23.306519 -21.526611 43.171143 -42.435913 55.223755c-20.909302 12.052734 -45.750366 15.306152 -69.058716 9.044678l0 0c-48.536987 -13.038696 -77.31311 -62.95288 -64.273315 -111.486206l0 0c13.039795 -48.533325 62.95764 -77.30737 111.49463 -64.268555z" fill-rule="evenodd"/><path fill="#fdc134" d="m910.7598 937.67834l0 0c48.536987 13.038818 77.31311 62.95288 64.27338 111.486206l0 0c-6.261963 23.30664 -21.52655 43.171143 -42.435852 55.223877c-20.909302 12.052734 -45.75049 15.306152 -69.058716 9.044678l0 0c-48.536987 -13.038818 -77.31317 -62.95288 -64.27338 -111.486206l0 0c13.039795 -48.533386 62.95764 -77.30737 111.49457 -64.268555z" fill-rule="evenodd"/><path fill="#fdc134" d="m1227.0618 525.59827l0 0c48.536987 13.038818 77.31311 62.95294 64.273315 111.48627l0 0c-6.261963 23.30658 -21.52649 43.171143 -42.43579 55.223877c-20.909302 12.052673 -45.75049 15.306152 -69.058716 9.044678l0 0c-48.536987 -13.038818 -77.31311 -62.95288 -64.27344 -111.48627l0 0c13.039795 -48.533325 62.95764 -77.30737 111.49463 -64.268555z" fill-rule="evenodd"/><path fill="#000000" fill-opacity="0.0" d="m-3775.937 -4231.6694l17207.969 0l0 10479.339l-17207.969 0z" fill-rule="evenodd"/><path fill="#213b52" d="m1743.0117 2115.242l-242.95312 -291.09387q-100.84375 25.21875 -206.28125 25.21875q-224.60938 0 -412.5625 -105.421875q-187.9375 -105.4375 -297.95312 -292.23438q-110.015625 -186.8125 -110.015625 -422.875q0 -233.79688 110.015625 -420.59375q110.015625 -186.79684 297.95312 -292.21872q187.95312 -105.437515 412.5625 -105.437515q226.90625 0 413.70312 105.437515q186.8125 105.421875 295.67188 292.21872q108.875 186.79688 108.875 420.59375q0 213.14062 -90.53125 388.48438q-90.53125 175.34375 -246.39062 285.35938l366.71875 412.56262l-398.8125 0zm-939.71875 -1086.4064q0 160.4375 61.875 281.92188q61.890625 121.46875 173.04688 186.79688q111.171875 65.3125 255.5625 65.3125q144.40625 0 254.42188 -65.3125q110.015625 -65.328125 171.89062 -186.79688q61.890625 -121.484375 61.890625 -281.92188q0 -160.45312 -61.890625 -280.78125q-61.875 -120.328125 -171.89062 -184.5q-110.015625 -64.171844 -254.42188 -64.171844q-144.39062 0 -255.5625 64.171844q-111.15625 64.171875 -173.04688 184.5q-61.875 120.328125 -61.875 280.78125zm1469.1792 165.01562q0 -192.53125 76.78125 -341.5q76.78125 -148.98438 209.71875 -229.20312q132.9375 -80.21875 295.65625 -80.21875q123.78125 0 236.07812 53.859375q112.3125 53.859375 178.78125 143.25l0 -602.7969l325.46875 0l0 1696.0781l-325.46875 0l0 -187.9375q-59.59375 93.96875 -167.32812 151.26562q-107.71875 57.296875 -249.8125 57.296875q-160.4375 0 -293.375 -82.5q-132.9375 -82.515625 -209.71875 -232.64062q-76.78125 -150.125 -76.78125 -344.95312zm999.3125 4.578125q0 -116.890625 -45.84375 -200.54688q-45.84375 -83.65625 -123.78125 -128.34375q-77.921875 -44.703125 -167.29688 -44.703125q-89.390625 0 -165.03125 43.546875q-75.640625 43.546875 -122.625 127.21875q-46.984375 83.65625 -46.984375 198.25q0 114.59375 46.984375 200.54688q46.984375 85.953125 123.765625 131.79688q76.78125 45.84375 163.89062 45.84375q89.375 0 167.29688 -44.6875q77.9375 -44.703125 123.78125 -128.35938q45.84375 -83.65625 45.84375 -200.5625zm554.6636 -4.578125q0 -192.53125 76.78125 -341.5q76.78125 -148.98438 208.5625 -229.20312q131.79688 -80.21875 294.53125 -80.21875q142.09326 0 248.67139 57.296875q106.578125 57.296875 170.76562 144.39062l0 -181.0625l323.17188 0l0 1269.7656l-323.17188 0l0 -185.65625q-61.890625 89.390625 -170.76562 147.84375q-108.859375 58.4375 -250.96826 58.4375q-160.4375 0 -292.23438 -82.5q-131.78125 -82.515625 -208.5625 -232.64062q-76.78125 -150.125 -76.78125 -344.95312zm999.312 4.578125q0 -116.890625 -45.84375 -200.54688q-45.84375 -83.65625 -123.78125 -128.34375q-77.921875 -44.703125 -167.29688 -44.703125q-89.39014 0 -165.03076 43.546875q-75.640625 43.546875 -122.625 127.21875q-46.984375 83.65625 -46.984375 198.25q0 114.59375 46.984375 200.54688q46.984375 85.953125 123.765625 131.79688q76.78125 45.84375 163.89014 45.84375q89.375 0 167.29688 -44.6875q77.9375 -44.703125 123.78125 -128.35938q45.84375 -83.65625 45.84375 -200.5625zm1010.77344 -371.29688l0 614.25q0 64.1875 30.9375 92.84375q30.9375 28.640625 104.28125 28.640625l148.98438 0l0 270.45312l-201.70312 0q-405.67188 0 -405.67188 -394.21875l0 -611.96875l-151.28125 0l0 -263.57812l151.28125 0l0 -314.0l323.17188 0l0 314.0l284.20312 0l0 263.57812l-284.20312 0zm433.18652 366.71875q0 -192.53125 76.78125 -341.5q76.78125 -148.98438 208.5625 -229.20312q131.79688 -80.21875 294.53125 -80.21875q142.09375 0 248.67188 57.296875q106.578125 57.296875 170.76562 144.39062l0 -181.0625l323.17188 0l0 1269.7656l-323.17188 0l0 -185.65625q-61.890625 89.390625 -170.76562 147.84375q-108.859375 58.4375 -250.96875 58.4375q-160.4375 0 -292.23438 -82.5q-131.78125 -82.515625 -208.5625 -232.64062q-76.78125 -150.125 -76.78125 -344.95312zm999.3125 4.578125q0 -116.890625 -45.84375 -200.54688q-45.84375 -83.65625 -123.78125 -128.34375q-77.921875 -44.703125 -167.29688 -44.703125q-89.390625 0 -165.03125 43.546875q-75.640625 43.546875 -122.625 127.21875q-46.984375 83.65625 -46.984375 198.25q0 114.59375 46.984375 200.54688q46.984375 85.953125 123.765625 131.79688q76.78125 45.84375 163.89062 45.84375q89.375 0 167.29688 -44.6875q77.9375 -44.703125 123.78125 -128.35938q45.84375 -83.65625 45.84375 -200.5625zm1352.273 -653.21875q144.39062 0 256.70312 63.03125q112.3125 63.03125 175.34375 185.65625q63.03125 122.625 63.03125 294.51562l0 744.90625l-320.89062 0l0 -701.3594q0 -151.26562 -75.640625 -232.625q-75.625 -81.375 -206.26562 -81.375q-132.9375 0 -209.71875 81.375q-76.78125 81.359375 -76.78125 232.625l0 701.3594l-320.8911 0l0 -1696.0781l320.8911 0l0 584.4531q61.875 -82.5 165.01562 -129.48438q103.140625 -47.0 229.20312 -47.0z" fill-rule="nonzero"/></g></svg>